# xmcd
#
# Track frame offsets:
#	150
#	10799
#	24661
#	36611
#	52524
#	65466
#	77471
#	94364
#	107539
#	125934
#	145233
#	161362
#	175667
#	192474
#	203167
#	222105
#
# Disc length: 3119 seconds
#
# Revision: 0
# Processed by: cddbd v1.5.2PL0 Copyright (c) Steve Scherf et al.
# Submitted via: dBpowerAMP V4.0
#
DISCID=d80c2d10
DTITLE=Brian Curran - Made Myself Lonesome
DYEAR=2003
DGENRE=Blues
TTITLE0=Tuesday Night At Venice
TTITLE1=Hot Time In The Old Town Tonight
TTITLE2=Mind You Own Business
TTITLE3=Made Myself Lonesome
TTITLE4=Street Walkin Woman
TTITLE5=Statesboro Blues
TTITLE6=Walkin Blues
TTITLE7=Who Gives This Bride
TTITLE8=Avalon Blues
TTITLE9=Talkin Homestead
TTITLE10=Pay Day
TTITLE11=My First Love
TTITLE12=Who Do You Love
TTITLE13=Amazing Grace
TTITLE14=This Train
TTITLE15=Untitled
EXTD=
EXTT0=
EXTT1=
EXTT2=
EXTT3=
EXTT4=
EXTT5=
EXTT6=
EXTT7=
EXTT8=
EXTT9=
EXTT10=
EXTT11=
EXTT12=
EXTT13=
EXTT14=
EXTT15=
PLAYORDER=
